<?xml version="1.0" encoding="utf-8"?>
<!-- Generator: Adobe Illustrator 16.0.0, SVG Export Plug-In . SVG Version: 6.00 Build 0)  -->
<!DOCTYPE svg PUBLIC "-//W3C//DTD SVG 1.1//EN" "http://www.w3.org/Graphics/SVG/1.1/DTD/svg11.dtd">
<svg version="1.1" id="Layer_1" xmlns="http://www.w3.org/2000/svg" xmlns:xlink="http://www.w3.org/1999/xlink" x="0px" y="0px"
	 width="157.5px" height="157.589px" viewBox="0 0 157.5 157.589" enable-background="new 0 0 157.5 157.589" xml:space="preserve">
<g>
	<path d="M68.259,127.535l5.667-10.435v-9.858h16.758v9.858l5.667,10.435C86.986,127.535,77.623,127.535,68.259,127.535
		L68.259,127.535z M38.025,44.87v49.37l-5.668,10.436c24.159,0,48.318,0,72.478,0c9.096,0,16.223-1.756,21.373-5.268
		s7.727-8.445,7.727-14.801c0-3.88-1.188-7.209-3.562-9.985s-5.736-4.833-10.085-6.171c3.613-1.807,6.306-3.931,8.077-6.372
		c1.772-2.441,2.659-5.268,2.659-8.48c0-3.879-1.069-7.259-3.211-10.134c-2.14-2.876-5.202-5.101-9.181-6.673
		c-3.981-1.571-8.579-2.358-13.798-2.358c-24.159,0-48.318,0-72.478,0L38.025,44.87L38.025,44.87z M90.684,31.869v-9.475h44.508
		l12.966,6.084c0-5.541-0.001-11.08-0.001-16.621H17.795c0,5.541,0,11.08,0,16.621l12.965-6.084h43.166v9.475H90.684L90.684,31.869z
		 M54.683,63.836V44.87c16.717,0,33.435,0,50.151,0c3.076,0,5.486,0.938,7.225,2.811c1.739,1.872,2.609,4.08,2.609,6.622
		c0,2.61-0.87,4.851-2.609,6.724c-1.738,1.873-4.148,2.81-7.225,2.81H93.249v10.436h11.585c3.342,0,5.939,0.987,7.777,2.96
		c1.838,1.971,2.759,4.297,2.759,6.974c0,2.742-0.919,5.103-2.759,7.073c-1.84,1.975-4.433,2.967-7.777,2.961
		c-16.748-0.033-33.444-0.066-50.151-0.101V74.272h16.586l0.091-10.436H54.683L54.683,63.836z M90.684,91.651H73.926
		c0-14.739,0-29.477,0-44.215h16.758C90.684,62.174,90.684,76.913,90.684,91.651z"/>
	<path stroke="#FFFFFF" stroke-width="0.216" stroke-miterlimit="22.9256" d="M24.634,148.125h0.309l6.574-15.134h-3l-2.515,5.78
		c-0.574,1.302-1.147,3.397-1.147,3.397s-0.596-2.118-1.169-3.397l-2.581-5.78h-3.309L24.634,148.125L24.634,148.125z
		 M33.612,147.993h3.089v-15.002h-3.089V147.993L33.612,147.993z M44.202,148.191c2.934,0,5.118-1.521,5.118-4.302
		c0-2.581-1.479-3.729-4.104-4.854l-0.772-0.331c-1.324-0.574-1.897-0.948-1.897-1.875c0-0.75,0.574-1.324,1.478-1.324
		c0.883,0,1.456,0.375,1.985,1.324l2.405-1.545c-1.015-1.786-2.426-2.471-4.39-2.471c-2.758,0-4.522,1.766-4.522,4.082
		c0,2.515,1.478,3.706,3.707,4.654l0.772,0.331c1.412,0.618,2.25,0.993,2.25,2.052c0,0.883-0.816,1.522-2.096,1.522
		c-1.522,0-2.383-0.794-3.044-1.875l-2.515,1.456C39.481,146.824,41.334,148.191,44.202,148.191L44.202,148.191z M57.748,148.191
		c3.419,0,6.045-1.831,6.045-5.625v-9.575h-3.089v9.398c0,2.185-0.927,3.022-2.956,3.022c-2.052,0-3-0.838-3-3.022v-9.398h-3.088
		v9.575C51.659,146.36,54.284,148.191,57.748,148.191L57.748,148.191z M64.874,147.993h2.978l0.706-1.698h6.089l0.706,1.698h3.243
		l-6.861-15.134H71.47L64.874,147.993L64.874,147.993z M69.595,143.713l1.081-2.604c0.441-1.059,0.883-2.691,0.883-2.691
		s0.463,1.633,0.904,2.691l1.081,2.604H69.595L69.595,143.713z M80.626,147.993h9.884v-2.714h-6.796v-12.288h-3.088V147.993z"/>
	<path stroke="#FFFFFF" stroke-width="0.216" stroke-miterlimit="22.9256" d="M96.687,147.993h2.979l0.706-1.698h6.089l0.706,1.698
		h3.243l-6.861-15.134h-0.265L96.687,147.993L96.687,147.993z M101.408,143.713l1.08-2.604c0.441-1.059,0.883-2.691,0.883-2.691
		s0.463,1.633,0.904,2.691l1.082,2.604H101.408L101.408,143.713z M120.402,143.316c1.854-0.839,2.891-2.316,2.891-4.655
		c0-3.662-2.516-5.67-6.707-5.67h-4.147v15.002h3.089v-3.729h1.059c0.287,0,0.596-0.022,0.883-0.065l2.471,3.794h3.574
		L120.402,143.316L120.402,143.316z M115.527,141.573v-5.868h0.971c2.471,0,3.618,0.838,3.618,2.956s-1.103,2.912-3.618,2.912
		H115.527L115.527,141.573z M129.184,147.993h3.089v-12.288h4.28v-2.714h-11.649v2.714h4.28V147.993L129.184,147.993z
		 M143.038,148.191c2.935,0,5.118-1.521,5.118-4.302c0-2.581-1.479-3.729-4.104-4.854l-0.771-0.331
		c-1.324-0.574-1.897-0.948-1.897-1.875c0-0.75,0.573-1.324,1.478-1.324c0.883,0,1.457,0.375,1.986,1.324l2.404-1.545
		c-1.015-1.786-2.427-2.471-4.391-2.471c-2.758,0-4.522,1.766-4.522,4.082c0,2.515,1.479,3.706,3.706,4.654l0.772,0.331
		c1.412,0.618,2.25,0.993,2.25,2.052c0,0.883-0.815,1.522-2.096,1.522c-1.522,0-2.382-0.794-3.044-1.875l-2.516,1.456
		C138.316,146.824,140.17,148.191,143.038,148.191z"/>
</g>
</svg>
