<?xml version="1.0" encoding="utf-8"?>
<!-- Generator: Adobe Illustrator 16.0.0, SVG Export Plug-In . SVG Version: 6.00 Build 0)  -->
<!DOCTYPE svg PUBLIC "-//W3C//DTD SVG 1.1//EN" "http://www.w3.org/Graphics/SVG/1.1/DTD/svg11.dtd">
<svg version="1.1" id="Layer_1" xmlns="http://www.w3.org/2000/svg" xmlns:xlink="http://www.w3.org/1999/xlink" x="0px" y="0px"
	 width="50" height="50" viewBox="1.104 0 47.798 42.414" enable-background="new 1.104 0 47.798 42.414"
	 xml:space="preserve">
<g>
	<path d="M19.607,42.414l2.078-3.826v-3.614h6.145v3.614l2.077,3.826C26.475,42.414,23.041,42.414,19.607,42.414L19.607,42.414z
		 M8.521,12.104v18.103l-2.078,3.826c8.858,0,17.716,0,26.574,0c3.336,0,5.948-0.645,7.837-1.932s2.833-3.097,2.833-5.427
		c0-1.423-0.436-2.644-1.306-3.661c-0.87-1.018-2.104-1.772-3.698-2.263c1.325-0.663,2.313-1.441,2.962-2.336
		s0.976-1.932,0.976-3.109c0-1.423-0.393-2.662-1.178-3.716c-0.785-1.054-1.908-1.87-3.366-2.446
		c-1.46-0.576-3.146-0.865-5.06-0.865c-8.858,0-17.716,0-26.574,0L8.521,12.104L8.521,12.104z M27.83,7.337V3.863h16.318
		l4.754,2.231c0-2.032,0-4.063,0-6.094H1.104c0,2.031,0,4.063,0,6.094l4.754-2.231h15.827v3.474H27.83L27.83,7.337z M14.629,19.059
		v-6.954c6.129,0,12.259,0,18.388,0c1.128,0,2.012,0.344,2.649,1.03s0.956,1.496,0.956,2.428c0,0.957-0.318,1.779-0.956,2.465
		s-1.521,1.03-2.649,1.03h-4.247v3.826h4.247c1.226,0,2.178,0.362,2.852,1.086c0.674,0.722,1.012,1.575,1.012,2.557
		c0,1.006-0.337,1.871-1.012,2.594c-0.674,0.724-1.625,1.088-2.852,1.086c-6.141-0.013-12.262-0.025-18.388-0.037v-7.285h6.082
		l0.033-3.826H14.629L14.629,19.059z M27.83,29.258h-6.145c0-5.404,0-10.809,0-16.212h6.145C27.83,18.449,27.83,23.854,27.83,29.258
		z"/>
</g>
</svg>
