<?xml version="1.0" encoding="utf-8"?>
<!-- Generator: Adobe Illustrator 16.0.0, SVG Export Plug-In . SVG Version: 6.00 Build 0)  -->
<!DOCTYPE svg PUBLIC "-//W3C//DTD SVG 1.0//EN" "http://www.w3.org/TR/2001/REC-SVG-20010904/DTD/svg10.dtd">
<svg version="1.0" id="Layer_1" xmlns="http://www.w3.org/2000/svg" xmlns:xlink="http://www.w3.org/1999/xlink" x="0px" y="0px"
	 width="500" height="250" viewBox="0 0 850.3935547 850.3935547"
	 enable-background="new 0 0 850.3935547 850.3935547" xml:space="preserve">
<g>
	<path fill-rule="evenodd" clip-rule="evenodd" fill="#FFFFFF" d="M375.0527344,586.8925781l19.2783203-35.4960938v-33.5341797
		h57.0009766v33.5341797l19.2783203,35.4960938C438.7578125,586.8925781,406.9052734,586.8925781,375.0527344,586.8925781
		L375.0527344,586.8925781z M272.2109375,305.699707v167.9379883l-19.2822266,35.4970703c82.1791992,0,164.359375,0,246.5390625,0
		c30.9404297,0,55.1816406-5.9755859,72.7021484-17.9208984c17.5205078-11.9443359,26.28125-28.7275391,26.28125-50.34375
		c0-13.1992188-4.0400391-24.5229492-12.1142578-33.9648438c-8.0751953-9.4423828-19.5126953-16.440918-34.3037109-20.9916992
		c12.2871094-6.1450195,21.4472656-13.3720703,27.4736328-21.6728516c6.0273438-8.3051758,9.046875-17.9194336,9.046875-28.8447266
		c0-13.1958008-3.6396484-24.6923828-10.921875-34.4731445c-7.2792969-9.7841797-17.6972656-17.3515625-31.2304688-22.6977539
		c-13.5419922-5.3452148-29.1835938-8.0219727-46.9335938-8.0219727c-82.1796875,0-164.3598633,0-246.5390625,0
		L272.2109375,305.699707L272.2109375,305.699707z M451.3320313,261.4750977v-32.2304688h151.3964844l44.1044922,20.6962891
		c0-18.8476563-0.0029297-37.6899414-0.0029297-56.5366211H203.3964844c0,18.8466797-0.0019531,37.6889648-0.0019531,56.5366211
		l44.1030273-20.6962891h146.8334961v32.2304688H451.3320313L451.3320313,261.4750977z M328.8730469,370.2148438V305.699707
		c56.8647461,0,113.7294922,0,170.5947266,0c10.4609375,0,18.6611328,3.1894531,24.5751953,9.5595703
		c5.9140625,6.3686523,8.8730469,13.8793945,8.8730469,22.5268555c0,8.8769531-2.9589844,16.5009766-8.8730469,22.8706055
		c-5.9140625,6.3691406-14.1103516,9.5581055-24.5751953,9.5581055h-39.4072266v35.4970703h39.4072266
		c11.3642578,0,20.2011719,3.3579102,26.4541016,10.0708008c6.2519531,6.7036133,9.3847656,14.6176758,9.3847656,23.7211914
		c0,9.328125-3.1279297,17.3554688-9.3847656,24.0625c-6.2578125,6.7128906-15.078125,10.0917969-26.4541016,10.0712891
		c-56.9707031-0.1152344-113.762207-0.2294922-170.5947266-0.34375v-67.5820313h56.4204102l0.3095703-35.4970703H328.8730469
		L328.8730469,370.2148438z M451.3320313,464.8291016h-57.0009766c0-50.1337891,0-100.2670898,0-150.4013672h57.0009766
		C451.3320313,364.5620117,451.3320313,414.6953125,451.3320313,464.8291016z"/>
	
		<path fill-rule="evenodd" clip-rule="evenodd" fill="#FFFFFF" stroke="#FFFFFF" stroke-width="0.216" stroke-miterlimit="22.9256001" d="
		M226.6591797,656.9306641h1.050293l22.3632813-51.4804688h-10.206543l-8.5546875,19.6621094
		c-1.9511719,4.4277344-3.9023438,11.5566406-3.9023438,11.5566406s-2.0263672-7.2041016-3.9775391-11.5566406
		l-8.7802734-19.6621094h-11.2563477L226.6591797,656.9306641L226.6591797,656.9306641z M257.2016602,656.4804688h10.5063477
		v-51.0302734h-10.5063477V656.4804688L257.2016602,656.4804688z M293.2226563,657.1552734
		c9.9804688,0,17.4101563-5.1777344,17.4101563-14.6337891c0-8.7792969-5.0283203-12.6816406-13.9580078-16.5097656
		l-2.6269531-1.125c-4.5024414-1.9511719-6.4536133-3.2265625-6.4536133-6.3789063
		c0-2.5507813,1.9511719-4.5029297,5.0283203-4.5029297c3.0014648,0,4.9521484,1.2763672,6.753418,4.5029297l8.1796875-5.2529297
		c-3.4516602-6.078125-8.2543945-8.4052734-14.9331055-8.4052734c-9.3813477,0-15.3847656,6.0039063-15.3847656,13.8837891
		c0,8.5546875,5.027832,12.6074219,12.6079102,15.8339844l2.6264648,1.1259766
		c4.8027344,2.1015625,7.6542969,3.3769531,7.6542969,6.9785156c0,3.0019531-2.7768555,5.1787109-7.1289063,5.1787109
		c-5.1782227,0-8.1049805-2.7021484-10.3564453-6.3789063l-8.5551758,4.953125
		C277.1630859,652.5029297,283.4672852,657.1552734,293.2226563,657.1552734L293.2226563,657.1552734z M339.2998047,657.1552734
		c11.6318359,0,20.5620117-6.2285156,20.5620117-19.1357422v-32.5693359h-10.5063477v31.96875
		c0,7.4296875-3.1518555,10.28125-10.0556641,10.28125c-6.9785156,0-10.2060547-2.8515625-10.2060547-10.28125v-31.96875
		h-10.5058594v32.5693359C318.5878906,650.9267578,327.5175781,657.1552734,339.2998047,657.1552734L339.2998047,657.1552734z
		 M363.5395508,656.4804688h10.1303711l2.4018555-5.7783203h20.7119141l2.4018555,5.7783203h11.0317383L386.878418,605h-0.9008789
		L363.5395508,656.4804688L363.5395508,656.4804688z M379.5986328,641.921875l3.6767578-8.8554688
		c1.5014648-3.6015625,3.0019531-9.1552734,3.0019531-9.1552734s1.5761719,5.5537109,3.0766602,9.1552734l3.6777344,8.8554688
		H379.5986328L379.5986328,641.921875z M417.1210938,656.4804688h33.6191406V647.25h-23.1142578v-41.7998047h-10.5048828
		V656.4804688z"/>
	
		<path fill-rule="evenodd" clip-rule="evenodd" fill="#FFFFFF" stroke="#FFFFFF" stroke-width="0.216" stroke-miterlimit="22.9256001" d="
		M471.7529297,656.4804688h10.1308594l2.4013672-5.7783203h20.7119141l2.4023438,5.7783203h11.03125L495.0917969,605h-0.9003906
		L471.7529297,656.4804688L471.7529297,656.4804688z M487.8125,641.921875l3.6767578-8.8554688
		c1.5009766-3.6015625,3.0019531-9.1552734,3.0019531-9.1552734s1.5761719,5.5537109,3.0771484,9.1552734l3.6767578,8.8554688
		H487.8125L487.8125,641.921875z M552.4248047,640.5703125c6.3037109-2.8505859,9.8320313-7.8789063,9.8320313-15.8330078
		c0-12.4580078-8.5556641-19.2871094-22.8134766-19.2871094h-14.109375v51.0302734h10.5058594v-12.6826172h3.6035156
		c0.9746094,0,2.0253906-0.0742188,3.0009766-0.2246094l8.4052734,12.9072266h12.1572266L552.4248047,640.5703125
		L552.4248047,640.5703125z M535.8398438,634.6425781v-19.9609375h3.3027344
		c8.4052734,0,12.3076172,2.8515625,12.3076172,10.0556641c0,7.203125-3.7519531,9.9052734-12.3076172,9.9052734H535.8398438
		L535.8398438,634.6425781z M582.2929688,656.4804688h10.5068359v-41.7988281h14.5585938v-9.2314453H567.734375v9.2314453
		h14.5585938V656.4804688L582.2929688,656.4804688z M629.4208984,657.1552734
		c9.9804688,0,17.4101563-5.1777344,17.4101563-14.6337891c0-8.7792969-5.0283203-12.6816406-13.9580078-16.5097656
		l-2.6269531-1.125c-4.5019531-1.9511719-6.453125-3.2265625-6.453125-6.3789063
		c0-2.5507813,1.9511719-4.5029297,5.0273438-4.5029297c3.0019531,0,4.953125,1.2763672,6.7539063,4.5029297l8.1806641-5.2529297
		c-3.4521484-6.078125-8.2548828-8.4052734-14.9345703-8.4052734c-9.3808594,0-15.3847656,6.0039063-15.3847656,13.8837891
		c0,8.5546875,5.0292969,12.6074219,12.6083984,15.8339844l2.6269531,1.1259766
		c4.8017578,2.1015625,7.6533203,3.3769531,7.6533203,6.9785156c0,3.0019531-2.7763672,5.1787109-7.1289063,5.1787109
		c-5.1777344,0-8.1044922-2.7021484-10.3554688-6.3789063l-8.5556641,4.953125
		C613.3613281,652.5029297,619.6650391,657.1552734,629.4208984,657.1552734z"/>
</g>
</svg>
